<svg width="216" height="13" viewBox="0 0 216 13" fill="none" xmlns="http://www.w3.org/2000/svg">
<path d="M211.381 9.70952C211.134 9.90179 210.887 10.0912 210.658 10.2692C209.62 10.5274 208.638 10.2462 207.648 10.0941C207.489 10.0711 207.418 9.97358 207.462 9.83584C207.477 9.78705 207.548 9.74971 207.601 9.72101C207.703 9.66648 207.809 9.62058 208.024 9.51727C206.939 9.39101 205.998 9.07246 204.981 9.0782C204.214 9.08107 203.482 9.27337 202.73 9.31928C202.039 9.36233 201.383 9.06675 200.669 9.10693C198.529 9.22745 196.383 9.25326 194.24 9.37666C190.895 9.56893 187.55 9.47424 184.204 9.45989C181.679 9.45128 179.157 9.38243 176.632 9.33364C176.318 9.3279 175.997 9.32498 175.689 9.27332C175.186 9.18723 174.689 9.17294 174.183 9.25903C173.875 9.31355 173.554 9.34225 173.243 9.33077C170.718 9.23033 168.196 9.3164 165.67 9.31066C165.23 9.31066 164.774 9.32212 164.354 9.21881C163.413 8.98924 162.484 9.00071 161.535 9.13558C161.167 9.18724 160.958 8.9663 160.92 8.59612C160.897 8.37802 160.732 8.28328 160.529 8.26893C160.27 8.25172 159.988 8.28043 159.921 8.57026C159.815 9.00933 159.497 9.19872 159.106 9.21594C158.101 9.25899 157.09 9.28772 156.085 9.25616C153.877 9.18728 151.672 9.04088 149.465 8.9921C147.51 8.94905 145.555 9.00072 143.597 9.00933C142.524 9.01507 141.448 9.07819 140.39 8.84861C140.09 8.78261 139.773 8.7281 139.555 8.43252C139.699 8.16851 139.814 7.88155 139.996 7.64336C140.093 7.51423 140.305 7.37938 140.458 7.38799C143.674 7.52574 146.889 7.42816 150.105 7.45112C152.378 7.46547 154.647 7.5286 156.919 7.5286C159.506 7.53147 162.096 7.44827 164.683 7.4741C168.848 7.51427 173.013 7.37646 177.179 7.47977C180.207 7.55725 183.24 7.45972 186.268 7.44537C190.813 7.42528 195.357 7.39661 199.905 7.39374C201.862 7.39087 203.817 7.44539 205.775 7.45973C206.592 7.46547 207.409 7.43962 208.256 7.42814C208.206 7.31048 208.191 7.22152 208.159 7.21291C207.733 7.10386 207.304 6.98906 206.872 6.91158C206.251 6.80253 205.625 6.73366 205.005 6.62174C204.911 6.60452 204.793 6.47256 204.776 6.37786C204.761 6.29464 204.861 6.12822 204.937 6.111C205.24 6.03926 205.557 6.01917 205.866 5.96752C206.037 5.93882 206.204 5.88427 206.554 5.79531C205.755 5.60017 205.12 5.6834 204.502 5.59157C204.32 5.56574 204.144 5.48823 203.976 5.41362C203.938 5.3964 203.911 5.30462 203.914 5.24722C203.917 5.19557 203.961 5.10374 203.997 5.10087C204.238 5.0693 204.49 5.01473 204.726 5.04916C205.425 5.15247 206.072 5.02621 206.795 4.76794C206.604 4.69046 206.507 4.61584 206.407 4.61584C204.326 4.62732 202.242 4.64172 200.16 4.67041C200.063 4.67041 199.958 4.78231 199.875 4.85979C199.775 4.95162 200.037 5.16397 200.252 5.14676C200.501 5.12667 200.751 5.08075 201.001 5.06927C201.186 5.06066 201.38 5.06924 201.56 5.11229C201.665 5.13811 201.762 5.24143 201.842 5.33039C201.948 5.44517 201.862 5.71211 201.701 5.81541C200.784 6.39509 199.769 6.68202 198.694 6.84846C196.874 7.12969 195.049 7.124 193.217 7.11826C189.872 7.11252 186.527 7.09529 183.181 7.10677C182.291 7.10964 181.421 7.04074 180.562 6.79682C180.139 6.6763 179.698 6.62467 179.266 6.54145C178.763 6.44388 178.272 6.44388 177.776 6.61319C177.552 6.69067 177.267 6.70211 177.041 6.64185C175.856 6.32044 174.674 6.42666 173.475 6.54145C171.973 6.68207 170.465 6.90587 168.957 6.57872C168.834 6.5529 168.701 6.51562 168.584 6.53571C167.202 6.77102 165.817 6.46104 164.436 6.55287C164.062 6.5787 163.683 6.53283 163.304 6.53283C162.928 6.53283 162.546 6.52419 162.172 6.57011C159.594 6.89438 157.008 6.80832 154.427 6.67632C153.986 6.65336 153.554 6.6304 153.11 6.67345C151.725 6.80832 150.344 6.83988 148.968 6.52134C148.545 6.42378 148.092 6.4094 147.654 6.418C147.283 6.42661 146.916 6.52707 146.572 6.5816C146.446 6.45533 146.455 6.34627 146.599 6.27739C146.825 6.16835 147.072 6.10521 147.289 5.98468C147.366 5.94164 147.395 5.79528 147.416 5.69197C147.422 5.65753 147.348 5.58293 147.298 5.56285C146.578 5.28449 145.82 5.27875 145.064 5.27875C142.351 5.28162 139.638 5.29886 136.924 5.30173C135.093 5.30173 133.262 5.33326 131.433 5.26152C130.307 5.21847 129.187 5.00902 128.064 4.86553C128.023 4.85979 127.965 4.76509 127.97 4.7163C127.973 4.67039 128.044 4.59867 128.094 4.59293C128.403 4.55275 128.714 4.51543 129.026 4.50395C129.781 4.47812 130.537 4.4724 131.292 4.44657C131.439 4.44083 131.507 4.32888 131.472 4.194C131.457 4.14235 131.401 4.08497 131.351 4.06201C131.236 4.01322 131.113 3.95874 130.992 3.95587C129.29 3.90134 127.585 3.82674 125.883 3.81526C123.611 3.79804 121.339 3.82957 119.066 3.84678C118.376 3.85252 117.682 3.84969 117.074 4.16822C117.012 4.32318 117.065 4.40637 117.229 4.42359C117.544 4.45803 117.858 4.47525 118.173 4.50395C118.484 4.53552 118.667 4.66463 118.573 4.76794C118.496 4.85116 118.373 4.89712 118.267 4.95738C118.161 5.01765 118.046 5.0664 117.952 5.14101C117.92 5.16684 117.917 5.25869 117.938 5.3046C117.958 5.35626 118.017 5.42798 118.061 5.43085C118.373 5.44807 118.687 5.43376 118.996 5.46532C119.096 5.4768 119.208 5.58585 119.275 5.67768C119.358 5.79246 119.214 6.07938 119.064 6.13104C118.887 6.1913 118.711 6.28602 118.532 6.30037C118.029 6.34055 117.523 6.3635 117.021 6.36637C115.189 6.38646 113.361 6.41225 111.529 6.40364C110.712 6.3979 109.895 6.32049 109.081 6.25448C109.01 6.24874 108.896 6.07939 108.901 5.9933C108.907 5.91008 109.034 5.79528 109.128 5.76658C109.307 5.71493 109.501 5.70632 109.689 5.69484C111.141 5.62023 112.591 5.58008 114.04 5.71782C114.739 5.78382 115.424 5.76372 116.077 5.48249C116.112 5.46814 116.139 5.37917 116.133 5.33039C116.127 5.28447 116.077 5.20988 116.042 5.20701C115.856 5.18979 115.671 5.18116 115.486 5.18403C113.531 5.21273 111.573 5.24718 109.619 5.27301C109.433 5.27588 109.237 5.24717 109.06 5.18977C108.96 5.15534 108.852 5.03484 108.831 4.93728C108.813 4.85118 108.899 4.66753 108.966 4.65318C109.331 4.57283 109.704 4.52975 110.074 4.47235C110.233 4.44653 110.304 4.35473 110.257 4.21986C110.242 4.17107 110.165 4.1079 110.118 4.1079C108.925 4.15094 107.731 4.19973 106.538 4.25713C106.503 4.26 106.47 4.33747 106.426 4.39487C106.685 4.54696 106.944 4.69334 107.194 4.85404C107.229 4.877 107.244 4.96598 107.235 5.01763C107.226 5.07216 107.188 5.14964 107.144 5.16399C106.967 5.22139 106.782 5.2845 106.6 5.29311C105.718 5.33616 104.836 5.36195 103.89 5.39925C104.169 5.63744 104.454 5.53128 104.71 5.56285C104.96 5.59441 105.215 5.57717 105.465 5.61448C106.027 5.69196 106.588 5.78098 107.144 5.89003C107.232 5.90725 107.294 6.04494 107.367 6.12529C107.273 6.19703 107.188 6.31475 107.088 6.3291C106.276 6.44389 105.459 6.52706 104.651 6.64472C104.363 6.6849 104.031 6.64475 103.772 6.96329C103.969 7.00633 104.133 7.06943 104.298 7.0723C106.129 7.09239 107.958 7.11539 109.789 7.11539C112.502 7.11539 115.216 7.10674 117.929 7.07804C119.569 7.06083 121.209 6.99772 122.85 6.96041C123.1 6.95467 123.355 6.95463 123.605 6.99194C124.863 7.1756 126.121 7.13258 127.385 7.09241C128.206 7.06658 129.026 7.11251 129.846 7.10964C130.096 7.10964 130.387 7.07234 130.499 6.82267C130.56 6.68206 130.484 6.48117 130.46 6.30899C130.422 6.02489 130.557 5.78958 130.784 5.7408C130.969 5.70062 131.151 5.62597 131.336 5.62597C132.977 5.64606 134.617 5.67764 136.257 5.7092C136.316 5.7092 136.395 5.73503 136.43 5.77807C136.501 5.86703 136.598 5.97896 136.592 6.07653C136.586 6.17697 136.492 6.32618 136.401 6.35488C136.234 6.4094 136.04 6.40651 135.857 6.40651C135.61 6.40651 135.328 6.30613 135.119 6.38935C134.602 6.59884 134.155 6.5242 133.673 6.28888C133.118 6.01913 132.562 6.14543 132.059 6.46396C131.977 6.51562 131.907 6.67059 131.924 6.75955C131.942 6.85712 132.068 6.99769 132.156 7.0063C133.035 7.08091 133.914 7.12687 134.796 7.18713C135.114 7.21009 135.487 7.23014 135.646 7.51424C136.016 8.16279 136.598 8.24601 137.26 8.23166C137.436 8.22879 137.612 8.30626 137.786 8.35791C137.8 8.36365 137.812 8.46695 137.789 8.49565C137.753 8.53869 137.686 8.58175 137.633 8.58175C136.245 8.61332 134.867 8.72813 133.473 8.67648C132.156 8.62769 130.819 8.533 129.531 8.96919L129.546 8.98355C129.49 8.95772 129.434 8.90893 129.376 8.90606C127.876 8.80562 126.395 8.60186 124.881 8.59612C122.238 8.58751 119.599 8.80275 116.956 8.61335C116.321 8.56744 115.698 8.64776 115.101 8.87159C114.669 9.03517 114.246 9.02371 113.811 8.8917C112.303 8.43542 110.827 8.60758 109.389 9.15282C108.775 9.38526 108.158 9.43983 107.54 9.26765C106.732 9.04094 105.935 8.98067 105.121 9.18729C105.001 9.21885 104.862 9.25039 104.748 9.22456C103.54 8.95481 102.376 9.33934 101.191 9.43691C101.065 9.44839 100.938 9.50009 100.818 9.48574C99.9416 9.39965 99.0804 9.4398 98.2308 9.67225C98.0574 9.72103 97.9339 9.56322 97.9398 9.33364C97.9427 9.27625 97.9927 9.21883 97.9956 9.15856C98.0074 8.9376 97.8605 8.82566 97.6665 8.78262C97.349 8.71375 97.0403 8.7568 96.7639 8.93759C96.4523 9.14421 96.1672 9.39391 95.8321 9.55174C95.6205 9.64931 95.3413 9.63784 95.0943 9.62923C94.8151 9.62062 94.674 9.40825 94.5564 9.18154C94.4182 8.91466 94.1743 8.90318 93.9126 8.96632L93.9273 8.98355C92.9631 8.55884 91.9284 9.0065 90.9495 8.76258C90.2646 8.87163 89.5708 8.95193 88.9799 9.35368L88.9976 9.33939C88.4479 9.5747 87.9277 9.60053 87.3839 9.26765C86.3197 8.6191 85.1616 8.44114 83.9357 8.72524C83.4977 8.82855 83.0655 8.77978 82.6246 8.7396C82.1278 8.69656 81.6222 8.72238 81.1225 8.73673C80.5463 8.75395 80.0201 8.90319 79.5439 9.25903C79.1412 9.55748 78.7268 9.48855 78.3593 9.13271C77.6861 8.48416 76.869 8.59326 76.0547 8.75683C75.9519 8.77692 75.8136 8.90027 75.7959 8.9921C75.7019 9.52299 75.3492 9.69235 74.8554 9.69235C74.0999 9.69235 73.3444 9.69808 72.589 9.68374C72.4949 9.68087 72.4008 9.57754 72.3068 9.52014C72.3979 9.45701 72.4772 9.37383 72.5772 9.33939C72.6918 9.29921 72.827 9.30776 72.9475 9.27907C72.9975 9.26759 73.0592 9.21884 73.0768 9.17292C73.0886 9.14136 73.0446 9.05241 73.0122 9.04668C72.2774 8.90319 71.5424 8.65922 70.7958 8.9921L70.8163 8.97206C70.587 9.41686 70.2285 9.59187 69.7405 9.43117C68.8528 9.13846 67.962 8.87736 67.0096 8.96919L67.0214 8.98068C66.6745 8.80276 66.307 8.73672 65.922 8.8056C64.4228 9.06674 62.9207 9.04375 61.4039 8.9921C60.0252 8.94618 58.6318 9.04953 57.2532 9.17292C55.8686 9.29632 54.49 9.37663 53.1025 9.27619C52.788 9.25324 52.4705 9.22458 52.1618 9.25041C50.7832 9.3652 49.4045 9.49722 48.0259 9.62348C47.8378 9.6407 47.6437 9.70094 47.4614 9.67225C45.4478 9.35371 43.4548 9.94196 41.4383 9.78126C40.5035 9.70665 39.5452 9.79566 38.6104 9.90758C36.4734 10.163 34.3304 9.9994 32.1904 10.0396C31.626 10.0511 31.0586 10.0425 30.4942 10.0597C29.7388 10.0826 28.9833 10.1658 28.2278 10.1371C27.2754 10.1027 26.3406 10.1428 25.4117 10.3495C25.2383 10.3868 25.0384 10.338 24.8562 10.3122C24.8033 10.3036 24.7239 10.2405 24.721 10.1945C24.7121 10.0884 24.7062 9.95346 24.765 9.87311C24.8326 9.78128 24.962 9.7153 25.0766 9.68374C25.7439 9.49147 26.4259 9.37951 27.1226 9.35943C27.878 9.33934 28.6335 9.30209 29.389 9.27052C29.774 9.2533 30.1503 9.18726 30.409 8.87447C30.7559 8.45262 31.2144 8.31201 31.7406 8.30053C32.8753 8.27183 34.007 8.24311 35.1417 8.20294C35.6356 8.18572 36.1471 8.29194 36.6292 8.03654C36.3675 7.76679 36.0383 7.85284 35.7444 7.85284C34.6097 7.84711 33.475 7.87869 32.3432 7.86721C32.0375 7.86434 31.726 7.78397 31.4291 7.70362C31.3703 7.6864 31.2938 7.46256 31.332 7.4109C31.4761 7.21863 31.6319 6.98338 31.8406 6.90303C32.1845 6.77103 32.5696 6.73653 32.94 6.69061C33.1046 6.67052 33.1869 6.63901 33.1693 6.45535C31.3467 6.48978 29.5271 6.43525 27.7105 6.2315C26.9462 6.14541 26.2084 6.36353 25.4735 6.53571C24.8973 6.67345 24.3505 6.63615 23.8126 6.40084C23.7185 6.26023 23.6421 6.10234 23.5216 5.99043C23.4716 5.94451 23.3217 5.99332 23.2217 6.01628C23.2012 6.02202 23.1865 6.11959 23.2041 6.15976C23.2217 6.20568 23.2747 6.25443 23.3217 6.26878C23.4893 6.31469 23.6598 6.3463 23.8303 6.38361C23.7303 6.45822 23.6392 6.573 23.5275 6.59883C22.5457 6.80832 21.5609 7.01489 20.5732 7.19568C19.5208 7.38795 18.4626 7.54582 17.4073 7.73809C17.2368 7.76965 17.0839 7.8902 16.9164 7.97629C17.0163 8.08247 17.0928 8.1628 17.1692 8.24602C17.3515 8.4469 17.3632 8.63631 17.1956 8.68509C16.9575 8.75397 16.7077 8.79985 16.4696 8.87159C16.2844 8.92899 16.1491 9.19013 16.2432 9.30779C16.3138 9.39675 16.4166 9.50006 16.5195 9.52014C16.7018 9.55458 16.8958 9.54598 17.081 9.52589C17.5337 9.47711 17.9658 9.52586 18.3509 9.77839C18.8888 10.1342 19.4767 10.3208 20.1264 10.3179C20.1675 10.3179 20.2528 10.4069 20.244 10.4298C20.2028 10.5302 20.1587 10.6823 20.0794 10.7082C19.4238 10.9234 18.7683 11.1559 18.0951 11.3022C17.472 11.4371 16.8899 11.6409 16.3167 11.9106C15.6347 12.2291 14.9439 12.5333 14.2355 12.7973C13.4271 13.0986 12.6276 13.113 11.9279 12.5017C11.4782 12.1086 10.9284 11.9709 10.3523 11.9766C9.27935 11.9881 8.20642 12.0254 7.13642 12.0827C6.82776 12.1 6.52496 12.2176 6.22512 12.3095C5.80476 12.4357 5.39329 12.5907 4.96999 12.7113C4.53787 12.8347 4.10278 12.8691 3.68242 12.6424C3.28558 12.4272 2.84461 12.387 2.40368 12.3526C2.15675 12.3325 1.88338 12.3295 1.67467 12.2205C1.41599 12.0885 1.69821 11.7815 1.55123 11.5663C1.2367 11.1071 0.939784 10.6393 0.654646 10.1629C0.398903 9.7325 0.222563 9.27912 0.249019 8.76258C0.263717 8.45839 0.287242 8.12546 0.184357 7.8471C-0.186029 6.8628 0.0990553 5.89574 0.20194 4.92579C0.266611 4.32315 0.6547 3.93862 1.22498 3.70617C1.70119 3.51103 2.19497 3.4508 2.70352 3.4508C3.71179 3.4508 4.72302 3.47088 5.73129 3.43931C7.62144 3.37905 9.51156 3.29297 11.3694 2.87687C11.9161 2.75347 12.4952 2.73623 13.0596 2.71327C14.6999 2.65014 16.3403 2.61282 17.9776 2.55543C18.4803 2.53821 18.9829 2.48084 19.4856 2.44067C20.241 2.38041 20.9935 2.31723 21.7461 2.2541C22.3105 2.20818 22.8749 2.15653 23.4393 2.11349C23.8155 2.08479 24.1948 2.02453 24.5681 2.04174C25.0766 2.06183 25.5646 1.99584 26.0644 1.90688C26.8669 1.76339 27.6958 1.6142 28.5012 1.65151C30.3414 1.7376 32.1463 1.48791 33.9659 1.33869C35.5974 1.20381 37.2406 1.17225 38.8808 1.12633C40.1419 1.0919 41.406 1.1091 42.667 1.1091C43.8017 1.1091 44.9363 1.10915 46.0681 0.94845C46.6266 0.868099 47.1998 0.893926 47.7672 0.876708C50.1629 0.802096 52.5616 0.750422 54.9544 0.641375C55.7745 0.604069 56.5741 0.833621 57.406 0.690137C58.2085 0.552392 59.0346 0.523715 59.8518 0.495018C61.1746 0.449103 62.5003 0.437622 63.8261 0.420404C65.0254 0.403186 66.2159 0.299874 67.4123 0.202305C68.8557 0.0817787 70.3108 0.110448 71.7629 0.101838C73.7177 0.0932294 75.6755 0.113337 77.6303 0.121946C77.7567 0.121946 77.8831 0.124813 78.0095 0.119073C83.4977 -0.101892 88.9858 0.0415724 94.474 0.098966C95.6733 0.110445 96.8697 0.0989856 98.0691 0.119073C99.2038 0.136291 100.341 0.116178 101.467 0.308447C101.838 0.37158 102.229 0.394579 102.599 0.351534C104.113 0.176484 105.624 0.36871 107.135 0.380189C108.334 0.388798 109.534 0.374514 110.73 0.374514C111.236 0.374514 111.741 0.357237 112.244 0.385934C114.01 0.494982 115.771 0.41465 117.532 0.262557C117.97 0.225251 118.417 0.167875 118.852 0.20805C120.175 0.334316 121.492 0.305628 122.814 0.216668C123.003 0.205189 123.197 0.176478 123.382 0.202305C125.457 0.492143 127.535 0.202319 129.614 0.216668C129.866 0.219537 130.122 0.182223 130.369 0.20805C133.635 0.578239 136.921 0.423296 140.193 0.586867C140.57 0.604086 140.952 0.578214 141.328 0.540908C142.095 0.460557 142.83 0.658598 143.58 0.718861C144.32 0.779125 145.093 0.53518 145.828 0.62414C147.845 0.868062 149.861 0.779105 151.878 0.770496C153.139 0.764757 154.4 0.802096 155.658 0.804966C157.678 0.807836 159.697 0.779128 161.714 0.793476C164.742 0.816433 167.766 0.862312 170.794 0.899618C170.856 0.899618 170.923 0.891011 170.982 0.90249C172.611 1.21242 174.248 1.10053 175.885 1.01157C176.388 0.985747 176.894 0.991484 177.391 0.93696C177.899 0.882436 178.399 0.86519 178.896 0.979977C179.519 1.12346 180.142 1.14639 180.774 1.02587C180.897 1.00291 181.027 0.977119 181.15 0.991467C183.17 1.22965 185.172 0.879541 187.179 0.839366C188.376 0.816408 189.578 0.876652 190.772 0.962742C191.468 1.01153 192.144 1.04026 192.841 0.931215C194.032 0.747555 195.228 0.776252 196.424 0.931215C197.171 1.02591 197.932 1.05461 198.688 1.07183C200.328 1.112 201.968 1.12348 203.606 1.14644C203.667 1.14644 203.732 1.14645 203.794 1.15506C205.117 1.38176 206.428 1.32436 207.733 1.00583C208.094 0.916869 208.482 0.911094 208.862 0.896745C209.873 0.862309 210.875 0.799173 211.86 0.535163C212.427 0.38307 212.986 0.457698 213.5 0.767624C213.606 0.833626 213.724 0.882433 213.838 0.934087C215.555 1.7089 215.237 1.66007 215.822 3.181C216.184 4.12512 216.008 4.99755 215.161 5.66906L215.182 5.64895C214.732 5.8527 214.285 6.05643 213.794 6.27739C213.841 6.42662 213.9 6.59304 213.941 6.76235C213.997 6.98619 213.912 7.1297 213.703 7.15266C213.453 7.18136 213.203 7.18995 212.93 7.21004C212.662 7.53431 213.186 7.68358 213.118 7.97342C213.065 8.20873 213.098 8.46121 213.083 8.70513C213.059 9.0868 212.965 9.21312 212.483 9.1959C211.98 9.17582 211.648 9.38527 211.363 9.74112L211.381 9.70952ZM149.973 5.66044C149.938 5.626 149.911 5.58006 149.87 5.5571C149.841 5.53988 149.797 5.54561 149.759 5.54274C149.838 5.57718 149.914 5.60877 149.994 5.64321L149.973 5.66044ZM122.306 2.30867C122.57 2.30867 122.835 2.30867 123.103 2.30867C123.852 2.74487 124.658 2.66735 125.466 2.5583C125.516 2.55256 125.575 2.49807 125.601 2.45216C125.625 2.41198 125.616 2.30867 125.607 2.3058C125.19 2.22545 124.769 2.14796 124.352 2.07621C123.896 1.99873 123.491 2.15653 123.088 2.32871C122.832 2.13931 122.576 2.14505 122.324 2.32871C121.909 2.30575 121.521 2.05897 121.092 2.19672C121.039 2.21394 120.983 2.26276 120.963 2.31155C120.907 2.44929 120.965 2.54397 121.118 2.57554C121.55 2.65876 121.944 2.54399 122.306 2.30867ZM61.689 6.02777C61.542 5.76376 61.3891 5.49686 61.0481 5.43372C60.6866 5.36772 60.3133 5.30748 59.987 5.52845C59.9164 5.57436 59.8694 5.7551 59.9047 5.82971C60.0428 6.12815 60.328 6.29173 60.6425 6.2659C61.0011 6.23434 61.348 6.10237 61.7008 6.01341L61.689 6.02777ZM68.1443 5.56285C68.1237 5.49684 68.1031 5.43086 68.0796 5.36773C66.4452 5.36773 64.8109 5.36486 63.1735 5.37347C63.053 5.37347 62.906 5.40788 62.8236 5.48249C62.756 5.54562 62.7178 5.70347 62.7472 5.79243C62.8295 6.03923 63.0265 6.19129 63.2852 6.26016C63.6644 6.36347 64.0318 6.33483 64.3905 6.17412C64.7314 6.0249 65.0636 5.85558 65.4134 5.72931C65.4957 5.70061 65.6692 5.77521 65.7309 5.85556C65.7926 5.93304 65.8191 6.12248 65.7662 6.18274C65.6074 6.36353 65.4223 6.5988 65.2136 6.63898C64.7256 6.73654 64.2141 6.75948 63.7143 6.76235C62.0123 6.76809 60.3133 6.74805 58.6142 6.88293C57.6118 6.96041 56.6065 7.06658 55.6012 7.09528C53.9638 7.14693 52.3235 7.15267 50.6861 7.16415C50.2481 7.16702 49.8102 7.11823 49.3722 7.08379C49.3251 7.08092 49.284 7.01776 49.2399 6.98332C49.3134 6.9001 49.3692 6.77675 49.4633 6.74231C49.8807 6.58161 50.3187 6.58163 50.7655 6.61607C51.5827 6.67633 52.3999 6.705 53.2171 6.73082C53.5346 6.7423 53.8756 6.70496 54.099 6.47538C54.4841 6.08224 54.9544 5.99903 55.4718 5.98755C56.1596 5.97034 56.8504 5.92733 57.5383 5.88716C57.5648 5.88429 57.6088 5.78097 57.5971 5.73505C57.5883 5.68627 57.5207 5.61168 57.4825 5.61168C56.1655 5.66907 54.8486 5.7178 53.5346 5.55136C53.3524 5.5284 53.1583 5.57722 52.9702 5.58583C52.0266 5.63174 51.083 5.67764 50.1424 5.71782C49.4516 5.74652 48.746 5.69488 48.067 5.8068C46.5649 6.05359 45.0599 6.07082 43.546 6.03064C43.2991 6.0249 43.0374 6.01338 42.8316 6.19991C43.0168 6.43235 43.2814 6.34052 43.5166 6.34626C44.3984 6.36922 45.2803 6.37495 46.1592 6.40364C46.3385 6.40938 46.5326 6.47253 46.6884 6.56149C46.7589 6.60166 46.8089 6.81979 46.7619 6.88293C46.5561 7.16129 46.3121 7.41096 46.0064 7.75819C47.0088 7.85863 47.8848 7.81559 48.7549 7.68645C49.7543 7.53723 50.7597 7.48839 51.768 7.49126C52.7145 7.49413 53.6581 7.48556 54.6046 7.45686C57.1179 7.38512 59.6431 7.49702 62.1447 7.15553C62.3916 7.1211 62.6473 7.13542 62.9001 7.12968C64.3493 7.10672 65.7985 7.08951 67.2477 7.06081C67.4123 7.05794 67.574 6.98621 67.8033 6.93169C67.6211 6.83125 67.5211 6.76525 67.4123 6.71934C67.236 6.64472 67.0772 6.55288 67.0508 6.34626C67.0214 6.13104 67.1801 5.90148 67.4594 5.78956C67.6857 5.70634 67.9179 5.64033 68.1443 5.56285ZM152.478 5.95315C159.85 6.01055 166.843 5.89289 173.837 6.0249C174.277 6.0335 174.718 5.99902 175.159 5.97319C175.336 5.96171 175.509 5.92157 175.885 5.86418C175.55 5.75513 175.395 5.71783 175.253 5.65182C175.154 5.60591 175.074 5.52558 174.983 5.45958C175.077 5.40218 175.171 5.29886 175.265 5.29599C176.062 5.28164 176.908 5.05203 177.52 5.83545C177.608 5.95024 177.87 5.97319 178.049 5.97319C179.057 5.9818 180.066 5.97324 181.071 5.95603C181.162 5.95603 181.253 5.86132 181.353 5.8068C180.939 5.53418 180.489 5.72933 180.065 5.67768C179.657 5.62889 179.21 5.7609 178.772 5.39645C179.251 5.27019 179.663 5.12665 180.086 5.05778C180.58 4.97743 181.086 4.96595 181.585 4.9143C182.009 4.87125 182.467 5.06065 182.932 4.6962C182.614 4.67037 182.37 4.63881 182.126 4.63595C180.677 4.62447 179.228 4.61584 177.779 4.61297C174.248 4.60436 170.721 4.59867 167.19 4.59293C167.002 4.59293 166.814 4.61584 166.623 4.61871C166.444 4.62158 166.379 4.67328 166.444 4.80815C167.422 4.97747 168.413 5.05783 169.421 4.966C169.789 4.93156 170.171 4.99176 170.541 5.04054C170.609 5.04915 170.706 5.22714 170.694 5.31897C170.685 5.41653 170.574 5.57434 170.494 5.58295C169.998 5.64035 169.495 5.69196 168.995 5.6891C166.852 5.68336 164.706 5.60018 162.566 5.66044C160.232 5.72644 157.904 5.71498 155.57 5.6748C154.688 5.66045 153.806 5.69773 152.925 5.71782C152.875 5.72643 152.819 5.7781 152.478 5.95315ZM74.5819 6.64185C74.8524 6.70498 74.9141 6.73082 74.9729 6.73082C80.0143 6.79109 85.0556 6.62754 90.0941 6.82267C90.2205 6.82841 90.3469 6.79969 90.4704 6.79969C92.046 6.81404 93.6186 6.8255 95.1942 6.84846C95.7586 6.85707 96.326 6.89729 96.8904 6.90016C96.9698 6.90016 97.0491 6.75667 97.1285 6.67919C97.0403 6.60745 96.958 6.48119 96.861 6.46971C96.3642 6.40945 95.8645 6.38069 95.3648 6.3319C95.3295 6.32903 95.2766 6.25444 95.2736 6.20852C95.2707 6.15974 95.3029 6.08226 95.3441 6.06504C95.5704 5.9646 95.8115 5.89572 96.0232 5.77233C96.0996 5.72928 96.1555 5.55428 96.1291 5.46532C96.1026 5.37062 95.9761 5.24147 95.8821 5.23286C95.0061 5.14677 94.1302 5.0406 93.2512 5.02338C91.2347 4.9832 89.2181 4.97168 87.2016 4.97742C83.9886 4.98603 80.7726 5.0176 77.5597 5.04916C77.251 5.05203 76.9395 5.11516 76.6396 5.19265C76.5661 5.20986 76.478 5.39353 76.4927 5.48249C76.5103 5.57719 76.6544 5.73792 76.722 5.72644C77.2747 5.64322 77.8595 5.80105 78.3798 5.51121C78.8972 5.22137 79.4647 5.2214 80.0349 5.25297C80.664 5.29027 81.2988 5.40789 81.9191 5.35624C83.433 5.2271 84.9439 5.35337 86.4519 5.29024C87.8982 5.23285 89.3416 5.47102 90.7908 5.2845C91.1523 5.23858 91.5815 5.26727 91.9019 5.41649C92.4957 5.69485 93.0807 5.74942 93.7127 5.68055C93.7685 5.67481 93.9009 5.84696 93.9009 5.93879C93.9038 6.03923 93.8215 6.19133 93.7303 6.23438C93.5657 6.31473 93.3718 6.3635 93.1895 6.36637C91.8667 6.39794 90.5439 6.42949 89.2211 6.42949C84.8117 6.42949 80.3994 6.418 75.99 6.41226C75.5608 6.42374 75.1169 6.35775 74.5819 6.64185ZM134.155 4.33174C134.349 4.57854 134.62 4.52117 134.855 4.50682C135.866 4.44943 136.869 4.47813 137.868 4.65605C138.3 4.73353 138.744 4.76509 139.182 4.79092C139.364 4.8024 139.555 4.75648 139.738 4.71918C139.787 4.71057 139.87 4.63598 139.864 4.60442C139.849 4.50685 139.808 4.33461 139.761 4.32887C137.941 4.1366 136.119 4.13376 134.293 4.21411C134.246 4.21985 134.202 4.29444 134.155 4.33174ZM143.63 4.21698C143.63 4.23707 143.627 4.25428 143.627 4.27436C143.133 4.27436 142.639 4.26289 142.145 4.28298C142.048 4.28585 141.951 4.40061 141.866 4.47523C141.763 4.56706 141.978 4.79663 142.195 4.83106C143.183 4.9889 144.162 4.9028 145.138 4.75358C145.182 4.74784 145.229 4.67899 145.249 4.6302C145.302 4.48959 145.249 4.36045 145.099 4.34611C144.611 4.28871 144.12 4.25716 143.63 4.21698ZM147.448 4.4781C147.992 4.57567 148.53 4.71054 149.08 4.75932C149.5 4.79663 149.932 4.72776 150.358 4.6962C150.388 4.69333 150.435 4.61299 150.435 4.56708C150.435 4.51829 150.399 4.43507 150.364 4.42359C149.4 4.12802 148.418 4.19974 147.448 4.4781ZM6.02819 10.2863C6.07522 10.3265 6.11637 10.3925 6.1634 10.3983C6.77483 10.4528 7.38332 10.5016 7.99475 10.5418C8.11527 10.5504 8.24755 10.536 8.35631 10.4901C8.51799 10.4213 8.66792 10.3179 8.81196 10.2146C8.84429 10.1916 8.84725 10.1027 8.83255 10.0568C8.81786 10.0109 8.76792 9.96493 8.72089 9.93911C8.67091 9.91328 8.60328 9.89322 8.54743 9.89896C7.75668 9.98792 6.96592 10.0797 6.17517 10.1773C6.12814 10.1831 6.08404 10.2404 6.02819 10.2863ZM175.838 2.8969C176.109 3.11213 176.435 2.99166 176.732 3.02897C176.979 3.06053 177.229 3.08343 177.479 3.11213C177.787 3.14657 178.099 3.19825 178.408 3.2126C178.519 3.21834 178.64 3.14662 178.749 3.09209C178.787 3.072 178.816 2.99452 178.813 2.94861C178.81 2.89982 178.766 2.82228 178.728 2.81654C177.926 2.64149 177.111 2.80795 176.303 2.75629C176.141 2.74481 175.95 2.71037 175.838 2.8969ZM99.5977 7.06656C99.8182 7.03499 99.9564 7.04933 100.056 6.99194C100.147 6.94029 100.206 6.81977 100.256 6.71934C100.274 6.67916 100.238 6.59305 100.2 6.55287C99.8563 6.16833 99.2714 6.18848 98.9187 6.60745C98.8746 6.6591 98.9275 6.88008 98.9834 6.90303C99.2068 6.98912 99.4507 7.02925 99.5977 7.06656ZM41.353 7.70936C43.54 7.91311 43.5401 7.91312 44.1603 7.58024C43.2961 7.58024 42.4848 7.5745 41.6734 7.58598C41.5676 7.58885 41.4588 7.66632 41.353 7.70936ZM149.814 8.10254C148.018 7.88157 148.018 7.88157 147.339 8.17428C148.233 8.28907 149.021 8.17428 149.814 8.10254ZM98.9657 5.41074C100.336 5.70058 100.336 5.70059 101.435 5.41936C100.565 5.22422 99.7741 5.32752 98.9657 5.41074ZM113.64 4.54984C113.955 4.49819 114.257 4.45233 114.56 4.39206C114.601 4.38346 114.648 4.30023 114.651 4.24571C114.654 4.19405 114.607 4.09361 114.581 4.09361C114.025 4.08787 113.473 4.09362 112.917 4.1051C112.867 4.1051 112.805 4.15958 112.776 4.20549C112.752 4.24567 112.755 4.35473 112.764 4.35759C113.055 4.42647 113.349 4.48671 113.64 4.54984ZM152.536 4.71056C152.872 4.77943 153.045 4.84256 153.218 4.84543C153.706 4.8569 154.191 4.84254 154.679 4.83106C154.723 4.83106 154.765 4.76798 154.806 4.73354C154.765 4.69336 154.723 4.62158 154.679 4.61871C154.194 4.59862 153.706 4.57857 153.218 4.58144C153.045 4.58431 152.872 4.64456 152.536 4.71056ZM161.74 4.65605C161.811 4.75649 161.834 4.83107 161.875 4.83681C162.29 4.92577 162.704 5.01475 163.125 5.07214C163.216 5.08362 163.322 4.96882 163.422 4.91142C163.354 4.82533 163.292 4.67041 163.219 4.66754C162.743 4.64459 162.261 4.65605 161.74 4.65605ZM146.381 2.81087C146.666 2.82809 146.79 2.85674 146.901 2.83378C147.001 2.81369 147.089 2.7362 147.183 2.68455C147.098 2.61281 147.016 2.4923 146.922 2.48369C146.634 2.45499 146.343 2.46646 146.052 2.47507C146.016 2.47507 145.964 2.55541 145.961 2.60419C145.955 2.6501 145.993 2.73619 146.028 2.7448C146.196 2.78785 146.372 2.808 146.381 2.81087ZM74.1028 5.36773C73.6766 5.36773 73.2504 5.36486 72.8212 5.37347C72.7947 5.37347 72.7682 5.4452 72.7329 5.49972C73.215 5.64321 73.6854 5.61452 74.1028 5.36773ZM39.1396 7.72085C39.0661 7.6405 38.9955 7.49413 38.9191 7.49126C38.828 7.48839 38.6839 7.586 38.6486 7.67496C38.6163 7.75531 38.6663 7.92464 38.7398 7.97629C38.8867 8.07386 39.1161 7.91312 39.1396 7.72085ZM131.745 2.3058C131.689 2.31728 131.51 2.34592 131.333 2.38896C131.186 2.42627 131.131 2.52963 131.183 2.65589C131.201 2.69894 131.283 2.75341 131.325 2.74767C131.56 2.7075 131.795 2.65591 132.024 2.59564C132.068 2.58416 132.121 2.50949 132.118 2.46358C132.118 2.33444 132.021 2.27711 131.745 2.3058ZM169.027 8.21155C169.045 8.38087 169.242 8.45836 169.445 8.3694C169.577 8.31201 169.633 8.19437 169.545 8.09967C169.477 8.02793 169.333 7.98198 169.239 7.9992C169.157 8.01642 169.095 8.13694 169.027 8.21155ZM128.744 2.24548C128.735 2.38609 128.805 2.47795 128.955 2.48656C129.008 2.48943 129.082 2.45499 129.117 2.41482C129.217 2.29716 129.193 2.16516 129.046 2.13359C128.958 2.11351 128.846 2.2053 128.744 2.24548ZM61.2275 7.93895C61.0864 7.93895 60.9159 7.93321 60.7425 7.94182C60.6896 7.94469 60.6131 7.96189 60.5896 7.9992C60.5308 8.09103 60.5984 8.15706 60.7571 8.16566C60.9276 8.17427 61.101 8.17714 61.2745 8.16566C61.3156 8.1628 61.3539 8.09676 61.3951 8.05945C61.351 8.02789 61.3039 7.99634 61.2275 7.93895ZM157.548 4.83968C157.637 4.83968 157.698 4.84829 157.754 4.83681C157.807 4.82533 157.889 4.7995 157.898 4.76507C157.925 4.65315 157.842 4.60148 157.687 4.61009C157.628 4.61296 157.569 4.59868 157.51 4.60729C157.398 4.62738 157.29 4.65888 157.181 4.68758C157.24 4.91428 157.443 4.80238 157.548 4.83968ZM37.1495 6.69061C37.2524 6.65617 37.4023 6.6476 37.4434 6.57872C37.4934 6.49263 37.3758 6.42663 37.2259 6.43524C37.1113 6.44098 36.9966 6.44098 36.8819 6.43811C36.7291 6.43237 36.6468 6.48117 36.6644 6.59021C36.6703 6.62178 36.7555 6.65335 36.8055 6.66196C36.9201 6.68204 37.0348 6.682 37.1495 6.69061ZM111.312 7.86146C111.453 7.85285 111.515 7.84997 111.576 7.84423C111.735 7.82701 111.809 7.75528 111.765 7.63762C111.75 7.59744 111.671 7.57161 111.618 7.55726C111.562 7.54004 111.494 7.53149 111.438 7.54297C111.268 7.58314 111.103 7.63479 110.933 7.68358C111.077 7.75245 111.227 7.82129 111.312 7.86146ZM142.398 2.63292C142.389 2.77066 142.457 2.85964 142.601 2.87112C142.651 2.87399 142.724 2.83668 142.756 2.79651C142.853 2.68172 142.833 2.55259 142.692 2.52103C142.607 2.50094 142.498 2.59274 142.398 2.63292ZM101.838 7.02641C101.891 7.00632 101.973 6.99772 101.996 6.96041C102.064 6.84276 102.002 6.75665 101.841 6.73082C101.667 6.70213 101.461 6.65907 101.511 6.93456C101.52 6.98048 101.723 6.99484 101.838 7.02641ZM202.412 2.95148C202.459 2.95148 202.518 2.95722 202.571 2.94861C202.624 2.94 202.674 2.91699 202.724 2.89978C202.641 2.86534 202.562 2.80512 202.48 2.80512C202.4 2.80512 202.324 2.86821 202.245 2.90265C202.3 2.91987 202.353 2.93426 202.412 2.95148ZM84.4942 5.79531C84.3766 5.76948 84.259 5.73217 84.1414 5.72357C84.0915 5.7207 84.0386 5.77523 83.9857 5.8068C84.018 5.84697 84.0444 5.91869 84.0797 5.92443C84.2002 5.93878 84.3266 5.93591 84.4472 5.92443C84.4648 5.92156 84.4766 5.84122 84.4942 5.79531ZM150.238 2.82516C150.291 2.8022 150.37 2.79072 150.388 2.75055C150.449 2.62715 150.393 2.5325 150.241 2.51241C150.194 2.50667 150.108 2.54111 150.091 2.58128C150.029 2.70468 150.088 2.79072 150.238 2.82516ZM129.77 7.76107C129.822 7.76967 129.916 7.74667 129.931 7.71511C129.984 7.58884 129.908 7.51708 129.74 7.55151C129.634 7.5716 129.537 7.63479 129.437 7.67783C129.549 7.70653 129.658 7.74385 129.77 7.76107ZM58.2497 8.10541C58.4555 8.0968 58.4819 8.04797 58.3203 7.98197C58.2762 7.96475 58.2085 8.00496 58.1498 8.01644C58.1821 8.048 58.2145 8.07672 58.2497 8.10541ZM184.572 4.80241C184.554 4.85406 184.513 4.91721 184.528 4.95738C184.545 5.0033 184.622 5.05778 184.666 5.05491C184.839 5.03769 184.869 4.94585 184.742 4.82532C184.71 4.79375 184.631 4.80815 184.572 4.80241ZM164.745 2.77065C164.7 2.64439 164.606 2.59851 164.48 2.66164C164.442 2.67886 164.403 2.75921 164.412 2.80225C164.442 2.92852 164.545 2.97153 164.674 2.91127C164.709 2.89118 164.721 2.81657 164.745 2.77065ZM139.802 2.75055C139.852 2.77924 139.905 2.83377 139.952 2.82803C140.005 2.82229 140.084 2.76781 140.09 2.72476C140.12 2.55545 140.032 2.50094 139.876 2.59277C139.835 2.6186 139.826 2.69889 139.802 2.75055ZM127.209 2.72476C127.194 2.67024 127.194 2.58701 127.159 2.56979C127.115 2.54683 127.024 2.55833 126.989 2.5899C126.856 2.71329 126.889 2.80794 127.065 2.82516C127.109 2.82803 127.162 2.7592 127.209 2.72476ZM144.506 8.00782L144.429 8.11403H144.576L144.506 8.00782ZM124.299 7.695C124.337 7.72656 124.375 7.77823 124.417 7.77823C124.455 7.77823 124.496 7.72656 124.534 7.695C124.496 7.6663 124.458 7.61184 124.419 7.61184C124.378 7.61184 124.34 7.6663 124.299 7.695ZM121.048 7.7811L121.13 7.89306L121.195 7.76961L121.048 7.7811Z" fill="#F88920"/>
<path d="M188.914 9.988C189.099 9.97652 189.287 9.96501 189.472 9.9564C189.631 9.95066 189.716 10.0253 189.702 10.1716C189.696 10.2204 189.637 10.3007 189.596 10.3036C189.167 10.3323 188.737 10.3524 188.311 10.3667C188.267 10.3667 188.179 10.2778 188.182 10.2692C188.232 10.1803 188.282 10.0482 188.361 10.0281C188.537 9.98223 188.729 9.99086 188.914 9.97938C188.914 9.97938 188.914 9.98513 188.914 9.988Z" fill="#F88920"/>
<path d="M28.3866 7.39377C27.7605 7.56022 27.1667 7.57743 26.567 7.4569C26.5229 7.44829 26.4641 7.36508 26.47 7.32203C26.4729 7.27612 26.5434 7.19859 26.5875 7.19859C27.1313 7.19285 27.6781 7.1986 28.2219 7.21008C28.2602 7.20721 28.2984 7.29047 28.3866 7.39377Z" fill="#F88920"/>
<path d="M125.892 6.09379C125.657 6.02492 125.375 5.94454 125.095 5.84984C125.063 5.83836 125.037 5.7494 125.043 5.70061C125.049 5.65183 125.101 5.57149 125.131 5.57149C125.422 5.59445 125.716 5.61456 126.004 5.66621C126.254 5.71213 126.427 5.94742 126.274 5.9962C126.168 6.03064 126.057 6.05075 125.892 6.09379Z" fill="#F88920"/>
<path d="M202.462 9.67515C202.589 9.70098 202.771 9.73251 202.947 9.78416C202.985 9.79564 203.035 9.87885 203.027 9.91903C203.018 9.96781 202.953 10.0339 202.909 10.0396C202.665 10.0683 202.421 10.097 202.177 10.0855C202.092 10.0798 202.009 9.95925 201.927 9.89325C202.027 9.83298 202.121 9.76407 202.224 9.71242C202.274 9.68372 202.345 9.6895 202.462 9.67515Z" fill="#F88920"/>
<path d="M184.601 9.92477C184.66 9.93912 184.734 9.93342 184.778 9.96786C184.869 10.0367 184.942 10.1256 185.022 10.206C184.934 10.2663 184.848 10.3352 184.751 10.3811C184.701 10.404 184.631 10.3868 184.569 10.3782C184.299 10.3466 184.131 10.1544 184.278 10.054C184.372 9.98796 184.496 9.96495 184.601 9.92477Z" fill="#F88920"/>
<path d="M66.6128 9.35084C66.1748 9.63207 65.6957 9.72105 65.1607 9.66079C65.3047 9.39678 65.3047 9.39676 66.6246 9.36233C66.6275 9.3652 66.6128 9.35084 66.6128 9.35084Z" fill="#F88920"/>
<path d="M140.02 6.19994C140.105 6.08802 140.24 5.979 140.378 5.93882C140.499 5.90438 140.593 6.03066 140.552 6.15979C140.496 6.33484 140.287 6.43241 140.134 6.37215C140.09 6.35493 139.996 6.2315 140.02 6.19994Z" fill="#F88920"/>
<path d="M125.757 4.87128C125.434 4.87702 125.248 4.76794 125.357 4.70194C125.492 4.61872 125.672 4.60439 125.833 4.57282C125.886 4.56134 125.951 4.57858 126.007 4.59867C126.06 4.61589 126.139 4.64453 126.148 4.68183C126.174 4.79949 126.089 4.85978 125.936 4.85691C125.875 4.85978 125.816 4.86841 125.757 4.87128Z" fill="#F88920"/>
<path d="M127.803 6.17418C127.659 6.20575 127.541 6.15121 127.553 6.01634C127.559 5.92738 127.65 5.81256 127.735 5.77239C127.862 5.70925 127.994 5.78674 127.982 5.92161C127.976 6.00771 127.865 6.08809 127.803 6.17418Z" fill="#F88920"/>
<path d="M211.357 9.7354C211.542 9.76123 211.736 9.76125 211.904 9.82725C211.983 9.85882 212.022 10.0167 212.051 10.1257C212.06 10.1573 211.978 10.2491 211.933 10.2491C211.816 10.2548 211.639 10.2692 211.592 10.2032C211.49 10.0626 211.448 9.87599 211.384 9.70955C211.381 9.70955 211.357 9.7354 211.357 9.7354Z" fill="#F88920"/>
<path d="M198.644 9.95063C198.664 9.90471 198.691 9.81863 198.705 9.81863C198.814 9.82724 198.923 9.85592 199.029 9.87601C199.005 9.92193 198.982 10.0051 198.961 10.0023C198.858 9.99939 198.752 9.97071 198.644 9.95063Z" fill="#F88920"/>
<path d="M193.626 10.0367C193.538 9.99368 193.449 9.95065 193.361 9.91048C193.402 9.87891 193.441 9.8301 193.488 9.81576C193.538 9.80141 193.602 9.80429 193.649 9.82437C193.693 9.84446 193.72 9.89895 193.752 9.93626C193.711 9.9707 193.67 10.0023 193.626 10.0367Z" fill="#F88920"/>
<path d="M204.702 9.85878L204.843 9.90761L204.729 9.97935L204.702 9.85878Z" fill="#F88920"/>
<path d="M143.062 6.57588L142.918 6.6189L142.936 6.50414L143.062 6.57588Z" fill="#F88920"/>
<path d="M195.31 9.96499L195.172 9.91903L195.284 9.85016L195.31 9.96499Z" fill="#F88920"/>
<path d="M137.407 7.63191C137.401 7.67495 137.412 7.73527 137.389 7.75823C137.36 7.78405 137.286 7.79836 137.254 7.78114C137.121 7.71226 137.13 7.63481 137.274 7.58889C137.31 7.57741 137.363 7.61756 137.407 7.63191Z" fill="#F88920"/>
<path d="M122.982 4.73357L122.835 4.78233L122.853 4.65608L122.982 4.73357Z" fill="#F88920"/>
<path d="M121.45 4.74219L121.324 4.77659L121.342 4.67619L121.45 4.74219Z" fill="#F88920"/>
<path d="M120.93 6.1799L121.059 6.14256L121.042 6.24877L120.93 6.1799Z" fill="#F88920"/>
<path d="M88.9682 9.35943C88.9682 9.35943 88.9858 9.3422 88.9858 9.34507C88.9858 9.34793 88.9682 9.35943 88.9682 9.35943Z" fill="#F88920"/>
<path d="M67.0008 8.97209C66.8714 9.09836 66.7421 9.22457 66.6128 9.35084L66.6246 9.36233C66.7539 9.23606 66.8832 9.10985 67.0096 8.98358C67.0125 8.98645 67.0008 8.97209 67.0008 8.97209Z" fill="#F88920"/>
<path d="M53.179 6.28891L53.1025 6.17703L53.2554 6.1799L53.179 6.28891Z" fill="#F88920"/>
<path d="M173.175 5.45958C173.213 5.42801 173.252 5.37347 173.29 5.37634C173.328 5.37634 173.363 5.43088 173.402 5.46245C173.363 5.49401 173.325 5.54848 173.287 5.54561C173.249 5.54561 173.21 5.49114 173.175 5.45958Z" fill="#F88920"/>
</svg>
